<svg id="Layer_1" data-name="Layer 1" xmlns="http://www.w3.org/2000/svg" viewBox="0 0 16 10.37"><defs><style>.cls-1{fill:#fff;}</style></defs><g id="behance"><path class="cls-1" d="M6.82,8a1.74,1.74,0,0,0,1.52-1.9A2.68,2.68,0,0,0,5.52,3.32H.5V13.63H5.22s3.47-.09,3.47-3.12C8.69,10.51,8.82,8,6.82,8ZM5.52,5.38s.65,0,.65,1-.36,1.06-.82,1.06H2.56V5.38Zm-.13,6.19H2.56V9h3s1.05,0,1.05,1.4C6.57,11.54,5.83,11.57,5.39,11.57Z" transform="translate(-0.5 -3.32)"/><path class="cls-1" d="M12.9,6.05c-3.82,0-3.82,3.81-3.82,3.81a3.53,3.53,0,0,0,3.82,3.82s3.41,0,3.41-2.63H14.56s0,1-1.66,1a1.37,1.37,0,0,1-1.57-1.56h5.16S16.93,6.05,12.9,6.05ZM14.46,9H11.19a1.74,1.74,0,0,1,1.75-1.48A1.45,1.45,0,0,1,14.46,9Z" transform="translate(-0.5 -3.32)"/><rect class="cls-1" x="10.31" y="0.52" width="4.13" height="1.55"/></g></svg>