<svg id="Layer_1" data-name="Layer 1" xmlns="http://www.w3.org/2000/svg" viewBox="0 0 16 16"><defs><style>.cls-1{fill:#fff;}</style></defs><path class="cls-1" d="M6.21,1A26,26,0,0,1,9.53,6.14a13.13,13.13,0,0,0,4.64-2.42l.38-.3A8,8,0,0,0,6,.77Z" transform="translate(-0.32 -0.43)"/><path class="cls-1" d="M14.76,4.45A14.11,14.11,0,0,1,9.93,7q.36.82.63,1.65a14.45,14.45,0,0,1,5.3.65l.39.12a8.26,8.26,0,0,0,.07-1,7.91,7.91,0,0,0-1.23-4.25Z" transform="translate(-0.32 -0.43)"/><path class="cls-1" d="M1.29,5.75a13.58,13.58,0,0,0,4.78.86,12.84,12.84,0,0,0,2.54-.25A25.3,25.3,0,0,0,5.49,1.61l-.41-.49A8,8,0,0,0,.84,5.58Z" transform="translate(-0.32 -0.43)"/><path class="cls-1" d="M3.4,14.34A8.57,8.57,0,0,1,6.58,10a8,8,0,0,1,3-1.22A15.85,15.85,0,0,0,9,7.24a13,13,0,0,1-2.58.31H6.08A14.81,14.81,0,0,1,1,6.63l-.4-.15A7.83,7.83,0,0,0,.32,8.43a8,8,0,0,0,3,6.22Z" transform="translate(-0.32 -0.43)"/><path class="cls-1" d="M15.59,10.21a13.64,13.64,0,0,0-4.76-.63,13.41,13.41,0,0,1,.29,1.34A11.68,11.68,0,0,1,11,15.76l-.07.25a8,8,0,0,0,5.2-5.65Z" transform="translate(-0.32 -0.43)"/><path class="cls-1" d="M10,15.52A11.27,11.27,0,0,0,9.9,9.69a7.12,7.12,0,0,0-5.62,4.94l-.19.59a8,8,0,0,0,4.23,1.21,7.61,7.61,0,0,0,1.52-.15Z" transform="translate(-0.32 -0.43)"/></svg>