<svg id="Layer_1" data-name="Layer 1" xmlns="http://www.w3.org/2000/svg" viewBox="0 0 16 15.97"><defs><style>.cls-1{fill:#fff;}</style></defs><path class="cls-1" d="M2.42.51A1.93,1.93,0,1,0,4.34,2.44,1.93,1.93,0,0,0,2.42.51Z" transform="translate(-0.5 -0.51)"/><path class="cls-1" d="M.76,5.82H4.08V16.49H.76Z" transform="translate(-0.5 -0.51)"/><path class="cls-1" d="M12.52,5.55A3.52,3.52,0,0,0,9.38,7.27h0V5.82H6.16V16.49H9.47V11.21c0-1.39.27-2.74,2-2.74s1.73,1.59,1.73,2.83v5.19H16.5V10.63C16.5,7.76,15.88,5.55,12.52,5.55Z" transform="translate(-0.5 -0.51)"/></svg>