<svg id="Layer_1" data-name="Layer 1" xmlns="http://www.w3.org/2000/svg" viewBox="0 0 20 20"><defs><style>.cls-1{fill:#a8a9b4;}</style></defs><circle class="cls-1" cx="16.25" cy="8.44" r="0.39"/><path class="cls-1" d="M8.16,7.7h3.12a.38.38,0,0,0,.39-.39,2,2,0,0,0-1-1.69,1.14,1.14,0,0,0,.2-.65A1.17,1.17,0,1,0,8.55,5a1.14,1.14,0,0,0,.2.65,2,2,0,0,0-1,1.69A.38.38,0,0,0,8.16,7.7ZM9.72,4.58a.39.39,0,0,1,0,.78.39.39,0,0,1,0-.78Zm0,1.56a1.17,1.17,0,0,1,1.1.78H8.61a1.19,1.19,0,0,1,1.11-.78Z" transform="translate(-0.5 -0.44)"/><path class="cls-1" d="M12.84,4.58h3.91a.39.39,0,0,0,.39-.39.38.38,0,0,0-.39-.39H12.84a.39.39,0,0,0-.39.39A.4.4,0,0,0,12.84,4.58Z" transform="translate(-0.5 -0.44)"/><path class="cls-1" d="M12.84,6.14h3.91a.38.38,0,0,0,.39-.39.39.39,0,0,0-.39-.39H12.84a.4.4,0,0,0-.39.39A.39.39,0,0,0,12.84,6.14Z" transform="translate(-0.5 -0.44)"/><path class="cls-1" d="M12.84,7.7h3.91a.38.38,0,0,0,.39-.39.39.39,0,0,0-.39-.39H12.84a.4.4,0,0,0-.39.39A.39.39,0,0,0,12.84,7.7Z" transform="translate(-0.5 -0.44)"/><path class="cls-1" d="M14,18.49V13.56a.4.4,0,0,0-.4-.39H12.45V12a.39.39,0,0,0-.39-.39H8.94a.39.39,0,0,0-.39.39v1.17H7.37a.4.4,0,0,0-.39.39v4.93a.4.4,0,0,0,.39.39h6.25A.4.4,0,0,0,14,18.49Zm-4.69-6.1h2.34v.78H9.33Zm3.9,5.7H7.77V15.76L10.33,17a.4.4,0,0,0,.34,0l2.56-1.28Zm0-3.21L10.5,16.25,7.77,14.88V14h5.46Z" transform="translate(-0.5 -0.44)"/><circle class="cls-1" cx="10" cy="19.61" r="0.39"/><path class="cls-1" d="M.89,20.44H8.74a.39.39,0,0,0,.39-.39.38.38,0,0,0-.39-.39H1.35l1.44-8.83H4.25a.38.38,0,0,0,.35-.22l.67-1.34H9.48l.67,1.34a.38.38,0,0,0,.35.22h9.15l-1.44,8.83h-6a.38.38,0,0,0-.39.39.39.39,0,0,0,.39.39h6.29a.39.39,0,0,0,.38-.33l1.56-9.61a.38.38,0,0,0-.08-.31.41.41,0,0,0-.3-.14H18.7V2.63a.38.38,0,0,0-.39-.39H15.58V.83a.39.39,0,0,0-.39-.39H3.47a.38.38,0,0,0-.39.39V6.92H.89a.39.39,0,0,0-.39.39V20.05A.39.39,0,0,0,.89,20.44ZM17.92,3v7H10.74l-.39-.78h4.84a.4.4,0,0,0,.39-.39.39.39,0,0,0-.39-.39H7V3ZM3.86,1.22H14.8v1H6.59a.39.39,0,0,0-.39.39V8.49H5a.39.39,0,0,0-.35.21L4,10.05H3.86ZM1.28,7.7h1.8v2.35H2.45a.39.39,0,0,0-.38.33l-.79,4.83Z" transform="translate(-0.5 -0.44)"/></svg>